<svg width="129" height="20" viewBox="0 0 129 20" fill="none" xmlns="http://www.w3.org/2000/svg">
<path d="M35.6431 13.3972C35.6431 15.2738 34.2189 16.4299 31.6721 16.4299C29.1253 16.4299 27.7011 15.2067 27.5168 13.2128H29.7452C29.762 14.1344 30.5495 14.7208 31.7056 14.7208C32.6104 14.7208 33.2974 14.436 33.2974 13.7993C33.2974 13.2296 32.9288 12.995 32.0742 12.8275L30.4657 12.5259C28.8572 12.241 27.8854 11.353 27.8854 9.96229C27.8854 8.3035 29.3096 7.14738 31.5381 7.14738C33.7833 7.14738 35.3248 8.33702 35.4923 10.2639H33.2639C33.1801 9.39261 32.5266 8.85643 31.5381 8.85643C30.6835 8.85643 30.1139 9.17479 30.1139 9.74447C30.1139 10.2806 30.4825 10.4985 31.2867 10.6493L33.0125 10.9676C34.7551 11.3027 35.6431 12.107 35.6431 13.3972ZM41.0032 16.4299C38.4228 16.4299 36.6468 14.5198 36.6468 11.7886C36.6468 9.10777 38.4899 7.14738 41.0032 7.14738C43.3322 7.14738 45.058 8.72239 45.3428 11.1352H42.8965C42.7793 9.94554 42.0588 9.2083 41.0032 9.2083C39.7968 9.2083 39.026 10.1969 39.026 11.7886C39.026 13.3972 39.78 14.369 41.0032 14.369C42.0755 14.369 42.7625 13.6652 42.8965 12.4421H45.3428C45.0748 14.9051 43.3992 16.4299 41.0032 16.4299ZM52.2837 12.4924V7.31493H54.5959V16.2623H52.468V15.0895C51.9821 15.877 50.9935 16.4299 49.8541 16.4299C48.0613 16.4299 46.7544 15.3408 46.7544 13.0118V7.31493H49.0834V12.5594C49.0834 13.816 49.7033 14.369 50.6416 14.369C51.4794 14.369 52.2837 13.6988 52.2837 12.4924ZM65.6191 11.7886C65.6191 14.4025 64.0609 16.4299 61.6481 16.4299C60.492 16.4299 59.5202 15.9105 58.8332 14.9722V16.2623H56.6885V4.23193H59.0175V8.47106C59.671 7.59978 60.5758 7.14738 61.6481 7.14738C64.0609 7.14738 65.6191 9.14128 65.6191 11.7886ZM63.2231 11.7886C63.2231 10.0796 62.2681 9.2083 61.1287 9.2083C60.0061 9.2083 59.0343 10.0628 59.0343 11.7551C59.0343 13.4474 59.9726 14.3522 61.1287 14.3522C62.2681 14.3522 63.2231 13.4642 63.2231 11.7886ZM72.4398 16.2623V15.1565C71.8533 15.9942 70.9653 16.4299 69.7422 16.4299C67.8823 16.4299 66.6424 15.3408 66.6424 13.6652C66.6424 11.9227 68.0499 10.9844 70.6637 10.9844C71.1664 10.9844 71.602 11.0179 72.1549 11.0849V10.5487C72.1549 9.54341 71.5853 8.95697 70.6134 8.95697C69.6081 8.95697 69.0049 9.54341 68.9211 10.5487H66.8267C66.9608 8.48781 68.452 7.14738 70.6134 7.14738C72.9592 7.14738 74.3332 8.43755 74.3332 10.6325V16.2623H72.4398ZM68.8374 13.5982C68.8374 14.3522 69.3735 14.8214 70.2448 14.8214C71.4345 14.8214 72.1549 14.1679 72.1549 13.1291V12.4924C71.602 12.4086 71.2166 12.3751 70.8145 12.3751C69.4908 12.3751 68.8374 12.794 68.8374 13.5982ZM79.2553 11.7886C79.2553 9.14128 80.8136 7.14738 83.2264 7.14738C84.2987 7.14738 85.2035 7.61653 85.8737 8.47106V4.23193H88.186V16.2623H86.058V14.9722C85.3543 15.9105 84.3825 16.4299 83.2264 16.4299C80.8136 16.4299 79.2553 14.4025 79.2553 11.7886ZM81.6513 11.7886C81.6513 13.4642 82.6064 14.3522 83.7458 14.3522C84.9019 14.3522 85.857 13.4474 85.857 11.7551C85.857 10.0628 84.8851 9.2083 83.7458 9.2083C82.6064 9.2083 81.6513 10.0796 81.6513 11.7886ZM92.9624 5.23726C92.9624 6.02477 92.3257 6.61121 91.4042 6.61121C90.4994 6.61121 89.8627 6.02477 89.8627 5.23726C89.8627 4.41624 90.4994 3.8298 91.4042 3.8298C92.3257 3.8298 92.9624 4.41624 92.9624 5.23726ZM92.5938 16.2623H90.2648V7.31493H92.5938V16.2623ZM102.726 7.31493L99.4417 16.2623H96.8949L93.594 7.31493H96.1074L98.2353 13.615L100.38 7.31493H102.726ZM106.445 5.23726C106.445 6.02477 105.809 6.61121 104.887 6.61121C103.982 6.61121 103.346 6.02477 103.346 5.23726C103.346 4.41624 103.982 3.8298 104.887 3.8298C105.809 3.8298 106.445 4.41624 106.445 5.23726ZM106.077 16.2623H103.748V7.31493H106.077V16.2623ZM110.478 11.3865V16.2623H108.149V7.31493H110.294V8.58835C110.947 7.70031 111.869 7.14738 113.042 7.14738C114.835 7.14738 116.075 8.32026 116.075 10.4817V16.2623H113.762V11.2692C113.762 9.94554 113.243 9.2083 112.187 9.2083C111.266 9.2083 110.478 9.94554 110.478 11.3865ZM121.885 19.6637C119.472 19.6637 117.864 18.3568 117.763 16.2958H120.008C120.109 17.3179 120.762 17.8541 121.868 17.8541C123.158 17.8541 123.829 17.1671 123.829 15.877V14.57C123.343 15.4246 122.421 15.9272 121.332 15.9272C119.137 15.9272 117.495 14.0674 117.495 11.5373C117.495 8.94021 119.037 7.14738 121.248 7.14738C122.455 7.14738 123.359 7.61653 124.013 8.53808V7.31493H126.141V15.8435C126.141 18.2227 124.532 19.6637 121.885 19.6637ZM119.824 11.5373C119.824 12.995 120.578 13.9166 121.784 13.9166C123.008 13.9166 123.812 12.9615 123.812 11.5541C123.812 10.0963 123.008 9.15803 121.784 9.15803C120.595 9.15803 119.824 10.0796 119.824 11.5373Z" fill="black"/>
<path d="M0.552635 13.6723C2.04935 14.8982 3.91792 15.5734 5.8143 15.5734C5.8143 15.5734 5.81441 15.5734 5.81452 15.5734C6.60021 15.5734 7.38286 15.4592 8.14059 15.2338C9.49212 14.8318 11.1001 13.8892 12.1089 12.5728C11.9522 13.2347 11.7036 13.8969 11.385 14.4853C10.3462 16.4036 8.29575 17.7349 6.03382 17.9598C5.63804 17.9992 5.44046 18.3443 5.45562 18.6488C5.47169 18.9711 5.69983 19.196 6.01071 19.196C6.03246 19.196 6.05503 19.195 6.07829 19.1926C8.83279 18.9188 11.2514 17.3258 12.548 14.9313C13.2194 13.6913 13.6901 11.8879 13.4725 10.2438C13.8296 10.8224 14.1221 11.4665 14.3128 12.108C14.9347 14.199 14.4264 16.5903 12.986 18.3487C12.8256 18.5445 12.7947 18.7984 12.9033 19.0278C13.0101 19.2533 13.2334 19.4047 13.4591 19.4047C13.6223 19.4047 13.775 19.3281 13.8891 19.189C15.6432 17.0476 16.2269 14.211 15.4506 11.6011C15.0486 10.2495 14.1061 8.64146 12.7896 7.63269C13.4514 7.78932 14.1137 8.03801 14.7021 8.35663C16.6204 9.39537 17.9517 11.4459 18.1766 13.7077C18.2144 14.0879 18.5349 14.2868 18.8318 14.2868C19.0072 14.2868 19.1689 14.2192 19.2757 14.1013C19.3485 14.0209 19.4308 13.8796 19.4094 13.6634C19.1355 10.9089 17.5426 8.49029 15.148 7.19365C13.9983 6.57109 12.5987 6.21395 11.3083 6.21395C11.0164 6.21395 10.7339 6.23214 10.4619 6.26828C11.0401 5.91147 11.6838 5.61934 12.3247 5.4287C12.9071 5.25548 13.519 5.16757 14.143 5.16757C15.7447 5.16757 17.3152 5.7315 18.5653 6.75553C18.6823 6.85129 18.8207 6.90193 18.9658 6.90193C19.2368 6.90193 19.4988 6.71892 19.5889 6.46678C19.6692 6.24201 19.6007 6.01229 19.4057 5.85243C17.909 4.62653 16.0403 3.95132 14.144 3.95132C13.3581 3.95132 12.5755 4.06561 11.8177 4.29096C10.4661 4.69302 8.8581 5.63552 7.84934 6.95194C8.00597 6.29019 8.25462 5.62804 8.57328 5.03937C9.61202 3.12109 11.6625 1.78974 13.9244 1.56486C14.3202 1.52546 14.5178 1.18042 14.5026 0.875852C14.4866 0.553637 14.2585 0.328614 13.9475 0.328614C13.9258 0.328614 13.9032 0.329751 13.88 0.33199C11.1255 0.60581 8.70687 2.19887 7.41023 4.59329C6.73883 5.83336 6.2682 7.63669 6.48577 9.2809C6.12852 8.70225 5.83613 8.05815 5.64542 7.41673C5.02344 5.32578 5.5319 2.93444 6.97236 1.17605C7.1327 0.980237 7.16356 0.726412 7.05488 0.496913C6.94811 0.27145 6.72481 0.119919 6.49913 0.119919C6.33589 0.119919 6.18319 0.196602 6.06912 0.335695C4.31542 2.47732 3.73172 5.31386 4.50798 7.92376C4.91003 9.2754 5.85246 10.8834 7.16884 11.8922C6.50709 11.7355 5.84494 11.4868 5.25639 11.1683C3.3381 10.1295 2.00679 8.07903 1.78187 5.8171C1.74405 5.43695 1.42363 5.23798 1.12666 5.23798C0.951276 5.23798 0.789508 5.30567 0.682739 5.42356C0.609982 5.50395 0.527685 5.64521 0.549112 5.86142C0.822933 8.61592 2.416 11.0345 4.81041 12.3312C5.96018 12.9537 7.35967 13.3108 8.65014 13.3108C8.94205 13.3108 9.22464 13.2926 9.49656 13.2565C8.91835 13.6133 8.27469 13.9054 7.63374 14.0961C7.05128 14.2693 6.43951 14.3572 5.81537 14.3572C4.21379 14.3572 2.64322 13.7934 1.39307 12.7692C1.27617 12.6735 1.13777 12.6228 0.9927 12.6228C0.721668 12.6228 0.459624 12.8059 0.369476 13.058C0.289014 13.2829 0.357515 13.5125 0.552635 13.6723Z" fill="#6102FE"/>
</svg>
