<svg width="129" height="20" viewBox="0 0 129 20" fill="none" xmlns="http://www.w3.org/2000/svg">
<path d="M35.6431 13.4468C35.6431 15.3234 34.2189 16.4795 31.6721 16.4795C29.1253 16.4795 27.7011 15.2564 27.5168 13.2625H29.7452C29.762 14.184 30.5495 14.7705 31.7056 14.7705C32.6104 14.7705 33.2974 14.4856 33.2974 13.8489C33.2974 13.2792 32.9288 13.0446 32.0742 12.8771L30.4657 12.5755C28.8572 12.2906 27.8854 11.4026 27.8854 10.0119C27.8854 8.35312 29.3096 7.19699 31.5381 7.19699C33.7833 7.19699 35.3248 8.38663 35.4923 10.3135H33.2639C33.1801 9.44222 32.5266 8.90605 31.5381 8.90605C30.6835 8.90605 30.1139 9.2244 30.1139 9.79409C30.1139 10.3303 30.4825 10.5481 31.2867 10.6989L33.0125 11.0172C34.7551 11.3523 35.6431 12.1566 35.6431 13.4468ZM41.0032 16.4795C38.4228 16.4795 36.6468 14.5694 36.6468 11.8382C36.6468 9.15738 38.4899 7.19699 41.0032 7.19699C43.3322 7.19699 45.058 8.772 45.3428 11.1848H42.8965C42.7793 9.99515 42.0588 9.25791 41.0032 9.25791C39.7968 9.25791 39.026 10.2465 39.026 11.8382C39.026 13.4468 39.78 14.4186 41.0032 14.4186C42.0755 14.4186 42.7625 13.7149 42.8965 12.4917H45.3428C45.0748 14.9548 43.3992 16.4795 41.0032 16.4795ZM52.2837 12.542V7.36455H54.5959V16.312H52.468V15.1391C51.9821 15.9266 50.9935 16.4795 49.8541 16.4795C48.0613 16.4795 46.7544 15.3904 46.7544 13.0614V7.36455H49.0834V12.609C49.0834 13.8657 49.7033 14.4186 50.6416 14.4186C51.4794 14.4186 52.2837 13.7484 52.2837 12.542ZM65.6191 11.8382C65.6191 14.4521 64.0609 16.4795 61.6481 16.4795C60.492 16.4795 59.5202 15.9601 58.8332 15.0218V16.312H56.6885V4.28155H59.0175V8.52067C59.671 7.64939 60.5758 7.19699 61.6481 7.19699C64.0609 7.19699 65.6191 9.19089 65.6191 11.8382ZM63.2231 11.8382C63.2231 10.1292 62.2681 9.25791 61.1287 9.25791C60.0061 9.25791 59.0343 10.1124 59.0343 11.8047C59.0343 13.497 59.9726 14.4018 61.1287 14.4018C62.2681 14.4018 63.2231 13.5138 63.2231 11.8382ZM72.4398 16.312V15.2061C71.8533 16.0439 70.9653 16.4795 69.7422 16.4795C67.8823 16.4795 66.6424 15.3904 66.6424 13.7149C66.6424 11.9723 68.0499 11.034 70.6637 11.034C71.1664 11.034 71.602 11.0675 72.1549 11.1345V10.5983C72.1549 9.59302 71.5853 9.00658 70.6134 9.00658C69.6081 9.00658 69.0049 9.59302 68.9211 10.5983H66.8267C66.9608 8.53743 68.452 7.19699 70.6134 7.19699C72.9592 7.19699 74.3332 8.48716 74.3332 10.6821V16.312H72.4398ZM68.8374 13.6478C68.8374 14.4018 69.3735 14.871 70.2448 14.871C71.4345 14.871 72.1549 14.2175 72.1549 13.1787V12.542C71.602 12.4582 71.2166 12.4247 70.8145 12.4247C69.4908 12.4247 68.8374 12.8436 68.8374 13.6478ZM79.2553 11.8382C79.2553 9.19089 80.8136 7.19699 83.2264 7.19699C84.2987 7.19699 85.2035 7.66615 85.8737 8.52067V4.28155H88.186V16.312H86.058V15.0218C85.3543 15.9601 84.3825 16.4795 83.2264 16.4795C80.8136 16.4795 79.2553 14.4521 79.2553 11.8382ZM81.6513 11.8382C81.6513 13.5138 82.6064 14.4018 83.7458 14.4018C84.9019 14.4018 85.857 13.497 85.857 11.8047C85.857 10.1124 84.8851 9.25791 83.7458 9.25791C82.6064 9.25791 81.6513 10.1292 81.6513 11.8382ZM92.9624 5.28687C92.9624 6.07438 92.3257 6.66082 91.4042 6.66082C90.4994 6.66082 89.8627 6.07438 89.8627 5.28687C89.8627 4.46586 90.4994 3.87942 91.4042 3.87942C92.3257 3.87942 92.9624 4.46586 92.9624 5.28687ZM92.5938 16.312H90.2648V7.36455H92.5938V16.312ZM102.726 7.36455L99.4417 16.312H96.8949L93.594 7.36455H96.1074L98.2353 13.6646L100.38 7.36455H102.726ZM106.445 5.28687C106.445 6.07438 105.809 6.66082 104.887 6.66082C103.982 6.66082 103.346 6.07438 103.346 5.28687C103.346 4.46586 103.982 3.87942 104.887 3.87942C105.809 3.87942 106.445 4.46586 106.445 5.28687ZM106.077 16.312H103.748V7.36455H106.077V16.312ZM110.478 11.4361V16.312H108.149V7.36455H110.294V8.63796C110.947 7.74992 111.869 7.19699 113.042 7.19699C114.835 7.19699 116.075 8.36987 116.075 10.5313V16.312H113.762V11.3188C113.762 9.99515 113.243 9.25791 112.187 9.25791C111.266 9.25791 110.478 9.99515 110.478 11.4361ZM121.885 19.7133C119.472 19.7133 117.864 18.4064 117.763 16.3455H120.008C120.109 17.3675 120.762 17.9037 121.868 17.9037C123.158 17.9037 123.829 17.2167 123.829 15.9266V14.6197C123.343 15.4742 122.421 15.9768 121.332 15.9768C119.137 15.9768 117.495 14.117 117.495 11.5869C117.495 8.98983 119.037 7.19699 121.248 7.19699C122.455 7.19699 123.359 7.66615 124.013 8.58769V7.36455H126.141V15.8931C126.141 18.2723 124.532 19.7133 121.885 19.7133ZM119.824 11.5869C119.824 13.0446 120.578 13.9662 121.784 13.9662C123.008 13.9662 123.812 13.0111 123.812 11.6037C123.812 10.1459 123.008 9.20765 121.784 9.20765C120.595 9.20765 119.824 10.1292 119.824 11.5869Z" fill="white"/>
<path d="M0.552635 13.7219C2.04935 14.9479 3.91792 15.623 5.8143 15.623C5.8143 15.623 5.81441 15.623 5.81452 15.623C6.60021 15.623 7.38286 15.5088 8.14059 15.2834C9.49212 14.8814 11.1001 13.9388 12.1089 12.6224C11.9522 13.2843 11.7036 13.9465 11.385 14.5349C10.3462 16.4532 8.29575 17.7845 6.03382 18.0094C5.63804 18.0488 5.44046 18.3939 5.45562 18.6984C5.47169 19.0207 5.69983 19.2456 6.01071 19.2456C6.03246 19.2456 6.05503 19.2446 6.07829 19.2422C8.83279 18.9684 11.2514 17.3754 12.548 14.9809C13.2194 13.7409 13.6901 11.9375 13.4725 10.2934C13.8296 10.872 14.1221 11.5162 14.3128 12.1576C14.9347 14.2486 14.4264 16.6399 12.986 18.3983C12.8256 18.5941 12.7947 18.848 12.9033 19.0774C13.0101 19.3029 13.2334 19.4544 13.4591 19.4544C13.6223 19.4544 13.775 19.3777 13.8891 19.2386C15.6432 17.0972 16.2269 14.2606 15.4506 11.6507C15.0486 10.2991 14.1061 8.69107 12.7896 7.6823C13.4514 7.83893 14.1137 8.08762 14.7021 8.40624C16.6204 9.44498 17.9517 11.4955 18.1766 13.7574C18.2144 14.1375 18.5349 14.3364 18.8318 14.3364C19.0072 14.3364 19.1689 14.2688 19.2757 14.1509C19.3485 14.0705 19.4308 13.9292 19.4094 13.713C19.1355 10.9585 17.5426 8.5399 15.148 7.24326C13.9983 6.6207 12.5987 6.26355 11.3083 6.26355C11.0164 6.26355 10.7339 6.28175 10.4619 6.31789C11.0401 5.96108 11.6838 5.66895 12.3247 5.4783C12.9071 5.30509 13.519 5.21718 14.143 5.21718C15.7447 5.21718 17.3152 5.78111 18.5653 6.80514C18.6823 6.9009 18.8207 6.95153 18.9658 6.95153C19.2368 6.95153 19.4988 6.76852 19.5889 6.51639C19.6692 6.29162 19.6007 6.0619 19.4057 5.90204C17.909 4.67614 16.0403 4.00093 14.144 4.00093C13.3581 4.00093 12.5755 4.11522 11.8177 4.34057C10.4661 4.74262 8.8581 5.68513 7.84934 7.00154C8.00597 6.33979 8.25462 5.67764 8.57328 5.08898C9.61202 3.17069 11.6625 1.83934 13.9244 1.61447C14.3202 1.57506 14.5178 1.23003 14.5026 0.925458C14.4866 0.603243 14.2585 0.37822 13.9475 0.37822C13.9258 0.37822 13.9032 0.379358 13.88 0.381596C11.1255 0.655417 8.70687 2.24848 7.41023 4.6429C6.73883 5.88296 6.2682 7.6863 6.48577 9.33051C6.12852 8.75186 5.83613 8.10776 5.64542 7.46634C5.02344 5.37539 5.5319 2.98405 6.97236 1.22566C7.1327 1.02984 7.16356 0.776018 7.05488 0.546519C6.94811 0.321057 6.72481 0.169525 6.49913 0.169525C6.33589 0.169525 6.18319 0.246208 6.06912 0.385302C4.31542 2.52692 3.73172 5.36346 4.50798 7.97336C4.91003 9.325 5.85246 10.933 7.16884 11.9418C6.50709 11.7851 5.84494 11.5364 5.25639 11.2179C3.3381 10.1791 2.00679 8.12864 1.78187 5.86671C1.74405 5.48656 1.42363 5.28759 1.12666 5.28759C0.951276 5.28759 0.789508 5.35528 0.682739 5.47317C0.609982 5.55355 0.527685 5.69481 0.549112 5.91103C0.822933 8.66553 2.416 11.0841 4.81041 12.3808C5.96018 13.0033 7.35967 13.3604 8.65014 13.3604C8.94205 13.3604 9.22464 13.3422 9.49656 13.3061C8.91835 13.663 8.27469 13.955 7.63374 14.1457C7.05128 14.3189 6.43951 14.4068 5.81537 14.4068C4.21379 14.4068 2.64322 13.843 1.39307 12.8189C1.27617 12.7231 1.13777 12.6725 0.9927 12.6725C0.721668 12.6725 0.459624 12.8555 0.369476 13.1076C0.289014 13.3325 0.357515 13.5621 0.552635 13.7219Z" fill="#6102FE"/>
</svg>
